<svg width="120" height="120" viewBox="-80 -80 160 160" xmlns="http://www.w3.org/2000/svg">
  <path d="M0,-55 C22,-62 52,-46 60,-20 C68,8 54,42 28,54 C2,66 -28,60 -48,38 C-68,16 -64,-18 -48,-40 C-34,-60 -22,-48 0,-55Z" fill="#F4A0B0"/>
  <path d="M-22,-22 Q-14,-28 -6,-24" stroke="#2C1A1A" stroke-width="2.4" fill="none" stroke-linecap="round"/>
  <path d="M6,-24 Q14,-28 22,-22" stroke="#2C1A1A" stroke-width="2.4" fill="none" stroke-linecap="round"/>
  <ellipse cx="-14" cy="-8" rx="5" ry="3.5" fill="#2C1A1A"/>
  <ellipse cx="14" cy="-8" rx="5" ry="3.5" fill="#2C1A1A"/>
  <ellipse cx="-12" cy="-9" rx="1.8" ry="1.4" fill="white"/>
  <ellipse cx="12" cy="-9" rx="1.8" ry="1.4" fill="white"/>
  <path d="M-14,16 Q0,8 14,16" stroke="#2C1A1A" stroke-width="2.4" fill="none" stroke-linecap="round"/>
  <path d="M-14,-4 Q-16,4 -14,14" stroke="#A0C8F0" stroke-width="2" fill="none" stroke-linecap="round"/>
  <ellipse cx="-14" cy="16" rx="2.5" ry="3.2" fill="#A0C8F0"/>
  <path d="M16,-4 Q18,4 16,14" stroke="#A0C8F0" stroke-width="2" fill="none" stroke-linecap="round"/>
  <ellipse cx="16" cy="16" rx="2.5" ry="3.2" fill="#A0C8F0"/>
</svg>
