<svg width="120" height="120" viewBox="-80 -80 160 160" xmlns="http://www.w3.org/2000/svg">
  <path d="M-2,-54 C24,-62 56,-42 62,-14 C68,14 50,44 22,56 C-6,68 -36,58 -52,34 C-68,10 -60,-22 -42,-42 C-26,-60 -28,-46 -2,-54Z" fill="#78D8AA"/>
  <path d="M-22,-24 Q-14,-30 -6,-26" stroke="#2C1A1A" stroke-width="2.4" fill="none" stroke-linecap="round"/>
  <path d="M6,-26 Q14,-30 22,-24" stroke="#2C1A1A" stroke-width="2.4" fill="none" stroke-linecap="round"/>
  <circle cx="-14" cy="-10" r="5.5" fill="#2C1A1A"/>
  <circle cx="14" cy="-10" r="5.5" fill="#2C1A1A"/>
  <circle cx="-12" cy="-12" r="2" fill="white"/>
  <circle cx="16" cy="-12" r="2" fill="white"/>
  <path d="M-18,12 Q0,30 18,12" stroke="#2C1A1A" stroke-width="2.5" fill="none" stroke-linecap="round"/>
  <path d="M-18,12 Q0,30 18,12 Q0,22 -18,12Z" fill="#2C1A1A" opacity="0.1"/>
  <ellipse cx="-24" cy="4" rx="7" ry="4" fill="#FF9090" opacity="0.3"/>
  <ellipse cx="24" cy="4" rx="7" ry="4" fill="#FF9090" opacity="0.3"/>
</svg>
