<svg width="120" height="120" viewBox="-80 -80 160 160" xmlns="http://www.w3.org/2000/svg">
  <path d="M2,-52 C26,-60 56,-40 60,-12 C64,16 48,46 20,56 C-8,66 -38,54 -52,28 C-66,2 -60,-28 -42,-46 C-26,-64 -22,-44 2,-52Z" fill="#F4B87A"/>
  <path d="M-22,-20 Q-14,-26 -6,-22" stroke="#2C1A1A" stroke-width="2.4" fill="none" stroke-linecap="round"/>
  <path d="M6,-22 Q14,-26 22,-20" stroke="#2C1A1A" stroke-width="2.4" fill="none" stroke-linecap="round"/>
  <circle cx="-14" cy="-6" r="4.5" fill="#2C1A1A"/>
  <circle cx="14" cy="-6" r="4.5" fill="#2C1A1A"/>
  <circle cx="-12.5" cy="-7.5" r="1.6" fill="white"/>
  <circle cx="12.5" cy="-7.5" r="1.6" fill="white"/>
  <path d="M-12,16 Q0,10 12,16" stroke="#2C1A1A" stroke-width="2.4" fill="none" stroke-linecap="round"/>
</svg>
